<svg id="레이어_1" data-name="레이어 1" xmlns="http://www.w3.org/2000/svg" viewBox="0 0 150 150"><defs><style>.cls-1{fill:#040000;}</style></defs><path class="cls-1" d="M59.47,64.51c-.16.84-.3,1.66-.47,2.47-.43,2-.89,4-1.32,6a.2.2,0,0,1-.25.18H54.9c-.14,0-.21,0-.24-.18q-1.12-5.85-2.26-11.71s0-.06,0-.08h2.44q.75,4.8,1.51,9.61h0c.07-.36.14-.73.22-1.1.63-2.77,1.25-5.55,1.88-8.32,0-.13,0-.22.22-.22h1.91Q61.71,66,62.8,70.85c.49-3.19,1-6.4,1.48-9.62h2.3q-1.1,6-2.21,12h-3Z"/><path class="cls-1" d="M97.1,83.36a9.17,9.17,0,0,1,.61-3.07,5,5,0,0,1,5.19-3.09,5.08,5.08,0,0,1,4.84,4.62,8.22,8.22,0,0,1-.53,4.82,5,5,0,0,1-5.44,2.92,5,5,0,0,1-4.41-4.27C97.23,84.65,97.18,84,97.1,83.36Zm2.5,0a5.71,5.71,0,0,0,.56,2.69,2.64,2.64,0,0,0,1.49,1.37A2.57,2.57,0,0,0,104.87,86a5.38,5.38,0,0,0,.54-2.23,6.1,6.1,0,0,0-.47-2.92,2.67,2.67,0,0,0-1.58-1.49,2.62,2.62,0,0,0-3.24,1.4,5.69,5.69,0,0,0-.52,2.57Z"/><path class="cls-1" d="M66.14,83.08a7.74,7.74,0,0,1-1,4.15,4.74,4.74,0,0,1-4,2.36,5.1,5.1,0,0,1-5.59-4.41A8.25,8.25,0,0,1,56,80.32a5,5,0,0,1,5.19-3.13A5.08,5.08,0,0,1,66,81.7C66.08,82.24,66.11,82.79,66.14,83.08Zm-2.46.27a5.42,5.42,0,0,0-.6-2.74,2.61,2.61,0,0,0-3-1.29,2.76,2.76,0,0,0-1.9,1.93,6.74,6.74,0,0,0-.25,3.15,4.31,4.31,0,0,0,.81,2.13,2.45,2.45,0,0,0,2.29,1,2.57,2.57,0,0,0,2.15-1.62,5.64,5.64,0,0,0,.5-2.56Z"/><path class="cls-1" d="M80.94,66.89a8.12,8.12,0,0,1-.8,3.84,5,5,0,0,1-5.07,2.67,4.86,4.86,0,0,1-4.46-3.66,7.88,7.88,0,0,1,.29-5.88A4.78,4.78,0,0,1,75.27,61,5.1,5.1,0,0,1,79,62.19a5.49,5.49,0,0,1,1.76,3.28C80.88,66,80.91,66.6,80.94,66.89ZM78.49,67a5.44,5.44,0,0,0-.51-2.4,2.69,2.69,0,0,0-1.37-1.37,2.63,2.63,0,0,0-3.45,1.39,5.23,5.23,0,0,0-.49,2.13,5.91,5.91,0,0,0,.58,3.12,2.63,2.63,0,0,0,1.52,1.35,2.6,2.6,0,0,0,3.16-1.39A6,6,0,0,0,78.49,67Z"/><path class="cls-1" d="M88.11,73.19H85.74v-12l.19,0h4.32a5.84,5.84,0,0,1,2.07.38,3,3,0,0,1,2.05,2.84,5.46,5.46,0,0,1-.08,1.34,3.22,3.22,0,0,1-1.86,2.37l-.31.15,2.78,4.88-.26,0c-.71,0-1.42,0-2.12,0a.4.4,0,0,1-.41-.23c-.72-1.35-1.46-2.68-2.17-4a.45.45,0,0,0-.49-.29c-.44,0-.88,0-1.34,0Zm0-6.42h1.67a4.07,4.07,0,0,0,.6-.06A1.78,1.78,0,0,0,92,64.59,1.39,1.39,0,0,0,91,63.28a10.88,10.88,0,0,0-2.85-.17Z"/><path class="cls-1" d="M108.88,73.2c-.86,0-1.67,0-2.47,0a.41.41,0,0,1-.28-.21l-2.8-4.85a3.4,3.4,0,0,0-.18-.3c-.51.65-1,1.28-1.5,1.92a.49.49,0,0,0-.06.29c0,.94,0,1.88,0,2.83v.31H99.21v-12h2.38v5.13l0,0,.22-.26,3.58-4.71a.48.48,0,0,1,.43-.21h2.36l-.22.31c-1.09,1.4-2.17,2.8-3.26,4.19a.33.33,0,0,0,0,.45q2,3.36,4,6.74Z"/><path class="cls-1" d="M49.05,77.42v2h-5v3.11h4.22v2H44.08v4.84H41.69v-12Z"/><path class="cls-1" d="M75.73,87.39h4.84v2H73.36v-12h2.37Z"/><path class="cls-1" d="M89.92,89.38H87.57v-12h2.35Z"/><path class="cls-1" d="M40.74,71.13c0-.63,0-1.24,0-1.85,0-.07.16-.15.26-.19l5.29-1.83.4-.15a3.61,3.61,0,0,0-.35-.15c-1.78-.62-3.56-1.24-5.35-1.84-.2-.08-.28-.16-.27-.39,0-.54,0-1.08,0-1.66l.27.09c2.59,1,5.19,2,7.78,3a.32.32,0,0,1,.26.37c0,.42,0,.83,0,1.24a.31.31,0,0,1-.16.24l-8,3.08Z"/></svg>